<svg xmlns="http://www.w3.org/2000/svg" viewBox="0 0 64 64">
  <rect width="64" height="64" rx="16" fill="#173d5a"/>
  <path d="M41 20.5c-2.2-2.1-5.4-3.2-9.3-3.2-7.1 0-12.1 3.7-12.1 9.2 0 5.4 4.5 8.2 11.9 9.8 5.3 1.2 6.6 2.1 6.6 4.2 0 2.1-2.3 3.5-5.8 3.5-3.9 0-6.9-1.4-9.5-4.2l-4.1 4.6c2.8 3.2 6.7 5.1 11.3 5.6V54h5.4v-4.1c6.5-1 10.6-4.8 10.6-10.1 0-6.1-4-8.6-12.2-10.4-5-1.1-6.4-2.1-6.4-4.1 0-1.8 1.7-3.1 4.6-3.1 3.4 0 6 1.2 8.3 3.6l3.7-5.4Z" fill="#f8fbff"/>
  <path d="M29.7 13v4.5h5.4V13z" fill="#54d39b"/>
</svg>
